<?xml version="1.0" encoding="UTF-8" standalone="no"?>
<!-- Created with Inkscape (http://www.inkscape.org/) -->

<svg
   xmlns:dc="http://purl.org/dc/elements/1.1/"
   xmlns:cc="http://creativecommons.org/ns#"
   xmlns:rdf="http://www.w3.org/1999/02/22-rdf-syntax-ns#"
   xmlns:svg="http://www.w3.org/2000/svg"
   xmlns="http://www.w3.org/2000/svg"
   xmlns:xlink="http://www.w3.org/1999/xlink"
   xmlns:sodipodi="http://sodipodi.sourceforge.net/DTD/sodipodi-0.dtd"
   xmlns:inkscape="http://www.inkscape.org/namespaces/inkscape"
   width="200mm"
   height="200mm"
   viewBox="0 0 200 200"
   version="1.1"
   id="svg8"
   inkscape:version="0.92.2 2405546, 2018-03-11"
   sodipodi:docname="com.google.android.calendar.svg">
  <defs
     id="defs2">
    <inkscape:path-effect
       effect="mirror_symmetry"
       start_point="377.95276,116.73622"
       end_point="377.95276,651.29473"
       center_point="377.95276,377.95276"
       id="path-effect951"
       is_visible="true"
       mode="X"
       discard_orig_path="false"
       fuse_paths="false"
       oposite_fuse="false" />
    <inkscape:path-effect
       effect="ellipse_5pts"
       id="path-effect945"
       is_visible="true" />
    <inkscape:path-effect
       effect="bspline"
       id="path-effect925"
       is_visible="true"
       weight="33.333333"
       steps="2"
       helper_size="0"
       apply_no_weight="true"
       apply_with_weight="true"
       only_selected="false" />
    <inkscape:path-effect
       effect="bspline"
       id="path-effect1001"
       is_visible="true"
       weight="33.333333"
       steps="2"
       helper_size="0"
       apply_no_weight="true"
       apply_with_weight="true"
       only_selected="false" />
    <path
       inkscape:connector-curvature="0"
       d="M 95,48 H 73 V 23 L 49.71,0.3 C 49.53,0.11 49.28,0 49,0 48.45,0 48,0.45 48,1 V 23 H 23 L 0.3,46.29 C 0.11,46.47 0,46.72 0,47 c 0,0.55 0.45,1 1,1 h 22 v 25 l 23.29,22.7 c 0.18,0.19 0.43,0.3 0.71,0.3 0.55,0 1,-0.45 1,-1 V 73 H 73 L 95.7,49.71 C 95.89,49.53 96,49.28 96,49 96,48.45 95.55,48 95,48 Z"
       id="path2" />
    <defs
       id="defs4">
      <path
         id="path1215"
         d="M 95,48 H 73 V 23 L 49.71,0.3 C 49.53,0.11 49.28,0 49,0 48.45,0 48,0.45 48,1 V 23 H 23 L 0.3,46.29 C 0.11,46.47 0,46.72 0,47 c 0,0.55 0.45,1 1,1 h 22 v 25 l 23.29,22.7 c 0.18,0.19 0.43,0.3 0.71,0.3 0.55,0 1,-0.45 1,-1 V 73 H 73 L 95.7,49.71 C 95.89,49.53 96,49.28 96,49 96,48.45 95.55,48 95,48 Z"
         inkscape:connector-curvature="0" />
    </defs>
    <clipPath
       id="clipPath8">
      <use
         id="use6"
         xlink:href="#SVGID_63_"
         overflow="visible"
         style="overflow:visible"
         x="0"
         y="0"
         width="100%"
         height="100%" />
    </clipPath>
    <radialGradient
       id="radialGradient74"
       r="77.190002"
       cx="22.860001"
       cy="23"
       gradientUnits="userSpaceOnUse">
      <stop
         id="stop70"
         offset="0"
         stop-color="#fff" />
      <stop
         id="stop72"
         offset="1"
         stop-opacity="0"
         stop-color="#fff" />
    </radialGradient>
    <inkscape:path-effect
       effect="bspline"
       id="path-effect925-7"
       is_visible="true"
       weight="33.333333"
       steps="2"
       helper_size="0"
       apply_no_weight="true"
       apply_with_weight="true"
       only_selected="false" />
  </defs>
  <sodipodi:namedview
     id="base"
     pagecolor="#000000"
     bordercolor="#66f266"
     borderopacity="1"
     inkscape:pageopacity="0"
     inkscape:pageshadow="2"
     inkscape:zoom="0.7071068"
     inkscape:cx="399.00104"
     inkscape:cy="325.40669"
     inkscape:document-units="mm"
     inkscape:current-layer="layer1"
     showgrid="false"
     inkscape:pagecheckerboard="true"
     inkscape:window-width="1920"
     inkscape:window-height="1046"
     inkscape:window-x="0"
     inkscape:window-y="0"
     inkscape:window-maximized="1"
     showguides="false"
     inkscape:guide-bbox="true"
     inkscape:snap-global="true"
     inkscape:snap-object-midpoints="true"
     showborder="true"
     inkscape:object-nodes="true"
     inkscape:object-paths="false"
     inkscape:snap-smooth-nodes="true" />
  <metadata
     id="metadata5">
    <rdf:RDF>
      <cc:Work
         rdf:about="">
        <dc:format>image/svg+xml</dc:format>
        <dc:type
           rdf:resource="http://purl.org/dc/dcmitype/StillImage" />
        <dc:title />
      </cc:Work>
    </rdf:RDF>
  </metadata>
  <g
     inkscape:label="Layer 1"
     inkscape:groupmode="layer"
     id="layer1"
     transform="translate(0,-97)">
    <path
       style="opacity:1;fill:#ffffff;fill-opacity:1;stroke:none;stroke-width:0.03331614;stroke-linecap:butt;stroke-linejoin:miter;stroke-miterlimit:4;stroke-dasharray:none;stroke-dashoffset:0;stroke-opacity:1"
       d="m 16.100218,98.276082 c -7.9327335,0 -14.3187854,6.386048 -14.3187854,14.318778 v 168.59335 c 0,7.93273 6.3860519,14.31943 14.3187854,14.31943 H 184.69421 c 7.93275,0 14.31879,-6.3867 14.31879,-14.31943 V 112.59486 c 0,-7.93273 -6.38604,-14.318778 -14.31879,-14.318778 z m 21.99581,13.426658 a 8.3290357,8.3290357 0 0 1 8.329037,8.32904 8.3290357,8.3290357 0 0 1 -8.329037,8.32902 8.3290357,8.3290357 0 0 1 -8.329034,-8.32902 8.3290357,8.3290357 0 0 1 8.329034,-8.32904 z m 124.784572,0 a 8.3290363,8.3290363 0 0 1 8.32905,8.32904 8.3290363,8.3290363 0 0 1 -8.32905,8.32902 8.3290363,8.3290363 0 0 1 -8.32903,-8.32902 8.3290363,8.3290363 0 0 1 8.32903,-8.32904 z m -80.062851,55.3178 c 6.91309,0 12.509329,1.64628 16.788862,4.93822 4.279539,3.20965 6.419859,7.24229 6.419859,12.09792 0,4.85563 -1.60492,9.25834 -4.81457,13.20868 -3.127348,3.95034 -6.913289,7.11885 -11.357419,9.50551 6.090105,1.64598 11.110249,4.44442 15.060589,8.39476 3.95034,3.86804 5.92532,8.8882 5.92532,15.06059 0,8.14757 -3.0445,14.93733 -9.13461,20.36904 -6.090098,5.43172 -13.455947,8.1475 -22.097315,8.1475 -8.641365,0 -16.41862,-1.72828 -23.331712,-5.18483 l 1.974894,-4.56795 c 5.596313,2.88046 12.344734,4.32068 20.245411,4.32068 7.90068,0 14.197015,-2.13968 18.888042,-6.41921 4.69103,-4.36183 7.03608,-9.91674 7.03608,-16.66523 0,-4.36183 -1.60493,-8.14777 -4.814569,-11.35741 -3.209651,-3.20966 -6.912918,-5.51404 -11.110153,-6.91312 -4.197237,-1.39907 -8.311904,-2.09851 -12.344543,-2.09851 H 75.41076 v -4.19706 c 6.007807,-0.32918 11.563361,-2.6749 16.665883,-7.03673 5.102519,-4.44413 7.653603,-9.09422 7.653603,-13.94984 0,-3.62114 -1.56359,-6.54229 -4.690939,-8.76435 -3.045052,-2.30438 -7.571778,-3.45656 -13.579585,-3.45656 -6.007807,0 -12.550201,1.23421 -19.627892,3.70317 l -1.358024,-4.5673 c 8.065277,-3.04506 15.513147,-4.56797 22.343943,-4.56797 z m 58.383291,1.60466 h 3.70381 v 88.26565 h -5.92597 v -80.73504 l -13.94919,7.407 -2.09852,-3.8268 z"
       id="rect969"
       inkscape:connector-curvature="0" />
  </g>
</svg>
