<?xml version="1.0" encoding="UTF-8" standalone="no"?>
<!-- Generator: Adobe Illustrator 21.0.2, SVG Export Plug-In . SVG Version: 6.00 Build 0)  -->

<svg
   xmlns:dc="http://purl.org/dc/elements/1.1/"
   xmlns:cc="http://creativecommons.org/ns#"
   xmlns:rdf="http://www.w3.org/1999/02/22-rdf-syntax-ns#"
   xmlns:svg="http://www.w3.org/2000/svg"
   xmlns="http://www.w3.org/2000/svg"
   xmlns:sodipodi="http://sodipodi.sourceforge.net/DTD/sodipodi-0.dtd"
   xmlns:inkscape="http://www.inkscape.org/namespaces/inkscape"
   version="1.2"
   id="Layer_1"
   x="0px"
   y="0px"
   viewBox="0 0 200 200"
   overflow="scroll"
   xml:space="preserve"
   sodipodi:docname="gmail.svg"
   width="200"
   height="200"
   style="overflow:scroll"
   inkscape:version="0.92.2 2405546, 2018-03-11"><metadata
   id="metadata37"><rdf:RDF><cc:Work
       rdf:about=""><dc:format>image/svg+xml</dc:format><dc:type
         rdf:resource="http://purl.org/dc/dcmitype/StillImage" /><dc:title></dc:title></cc:Work></rdf:RDF></metadata><defs
   id="defs35" /><sodipodi:namedview
   pagecolor="#007dff"
   bordercolor="#666666"
   borderopacity="1"
   objecttolerance="10"
   gridtolerance="10"
   guidetolerance="10"
   inkscape:pageopacity="0"
   inkscape:pageshadow="2"
   inkscape:window-width="1920"
   inkscape:window-height="1046"
   id="namedview33"
   showgrid="false"
   inkscape:pagecheckerboard="false"
   inkscape:zoom="1"
   inkscape:cx="244.69084"
   inkscape:cy="151.41262"
   inkscape:window-x="0"
   inkscape:window-y="0"
   inkscape:window-maximized="1"
   inkscape:current-layer="Layer_1" />
<path
   style="fill:#ffffff;fill-opacity:0.9735099;stroke-width:2.95636272"
   d="m 95.79299,50.895339 v 25.323459 l 24.16625,17.596451 0.005,0.0049 0.008,-0.0049 57.00298,-41.499812 c 1.00389,-0.702312 2.16633,-1.182406 3.41756,-1.420098 z m 94.88865,10.636 c -0.49186,2.190132 -1.77203,4.083898 -3.55271,5.331514 L 119.96415,115.7629 95.79299,98.16399 v 59.16016 h 86.01918 c 4.89869,0 8.86947,-3.96833 8.86947,-8.86703 z"
   id="path2"
   inkscape:connector-curvature="0" />



<line
   x1="54.799"
   y1="155.401"
   x2="32"
   y2="172"
   id="line10"
   style="fill:#de5145" />



<linearGradient
   id="SVGID_1_"
   gradientUnits="userSpaceOnUse"
   x1="14.0005"
   y1="30.743601"
   x2="32"
   y2="30.743601">
	<stop
   offset="0"
   style="stop-color:#C8C8C8"
   id="stop18" />
	<stop
   offset="1"
   style="stop-color:#CDCDCD"
   id="stop20" />
</linearGradient>

<linearGradient
   id="SVGID_2_"
   gradientUnits="userSpaceOnUse"
   x1="28.664499"
   y1="36.447399"
   x2="50"
   y2="36.447399">
	<stop
   offset="0"
   style="stop-color:#D9D9D9"
   id="stop25" />
	<stop
   offset="1"
   style="stop-color:#E2E2E2"
   id="stop27" />
</linearGradient>

<path
   style="fill:#ffffff;fill-opacity:1;stroke:none;stroke-width:1.2508738px;stroke-linecap:butt;stroke-linejoin:miter;stroke-opacity:1"
   d="m 109.75367,26.945112 -99.453369,12.390241 0.946733,113.568607 98.506636,30.14885 z m -52.967299,35.04303 c 9.060453,0 15.516089,4.743157 20.365593,10.92346 l -5.730053,7.641018 c -3.477491,-4.350383 -8.187249,-7.734381 -14.641747,-7.734381 -11.959804,0 -21.315426,12.855974 -21.315426,28.807371 0,15.95138 9.355622,28.80737 21.315426,28.80737 7.757475,0 12.174602,-4.15602 15.004916,-7.93093 2.295319,-3.06139 3.806124,-7.43425 4.40153,-13.40742 l -19.406446,0.0126 V 98.27708 h 27.362091 c 0.267514,1.88747 0.403525,4.12098 0.403525,6.53786 0,8.12532 -1.663401,18.17228 -7.030645,25.33085 -5.220551,7.25059 -11.89266,11.11756 -20.728764,11.11756 -16.377853,0 -30.149519,-17.79348 -30.149519,-39.63749 0,-21.843971 13.771666,-39.637464 30.149519,-39.637464 z"
   id="path868"
   inkscape:connector-curvature="0" /></svg>