<?xml version="1.0" encoding="UTF-8" standalone="no"?>
<!-- Created with Inkscape (http://www.inkscape.org/) -->

<svg
   xmlns:dc="http://purl.org/dc/elements/1.1/"
   xmlns:cc="http://creativecommons.org/ns#"
   xmlns:rdf="http://www.w3.org/1999/02/22-rdf-syntax-ns#"
   xmlns:svg="http://www.w3.org/2000/svg"
   xmlns="http://www.w3.org/2000/svg"
   xmlns:sodipodi="http://sodipodi.sourceforge.net/DTD/sodipodi-0.dtd"
   xmlns:inkscape="http://www.inkscape.org/namespaces/inkscape"
   width="200mm"
   height="200mm"
   viewBox="0 0 200 200"
   version="1.1"
   id="svg8"
   sodipodi:docname="reddit.svg"
   inkscape:version="0.92.2 2405546, 2018-03-11">
  <defs
     id="defs2" />
  <sodipodi:namedview
     id="base"
     pagecolor="#ffffff"
     bordercolor="#666666"
     borderopacity="1.0"
     inkscape:pageopacity="0.0"
     inkscape:pageshadow="2"
     inkscape:zoom="0.70710678"
     inkscape:cx="209.45318"
     inkscape:cy="181.2136"
     inkscape:document-units="mm"
     inkscape:current-layer="layer1"
     showgrid="false"
     inkscape:pagecheckerboard="true"
     inkscape:window-width="1920"
     inkscape:window-height="1046"
     inkscape:window-x="0"
     inkscape:window-y="0"
     inkscape:window-maximized="1" />
  <metadata
     id="metadata5">
    <rdf:RDF>
      <cc:Work
         rdf:about="">
        <dc:format>image/svg+xml</dc:format>
        <dc:type
           rdf:resource="http://purl.org/dc/dcmitype/StillImage" />
        <dc:title></dc:title>
      </cc:Work>
    </rdf:RDF>
  </metadata>
  <g
     inkscape:label="Layer 1"
     inkscape:groupmode="layer"
     id="layer1"
     transform="translate(0,-97)"
     style="display:inline">
    <path
       style="display:inline;fill:#ffffff;fill-opacity:1;stroke-width:0.28017923"
       d="m 152.90304,108.1707 c -4.90788,0 -9.13712,1.814 -12.66864,5.43345 -1.19403,1.22377 -2.2903,2.22533 -2.43508,2.22533 -0.14472,0 -6.37745,-1.67124 -13.85005,-3.71358 -14.52092,-3.96882 -14.57518,-3.97769 -16.48931,-2.77197 -1.74511,1.09923 -1.23077,-0.6282 -11.163767,37.43683 l -2.858333,10.95504 -2.50964,0.18563 c -10.28491,0.76383 -21.393061,3.33584 -31.014944,7.1803 -3.055277,1.22075 -9.121079,4.1699 -11.437906,5.56159 l -1.714767,1.02977 -1.865023,-1.39186 c -3.082028,-2.30119 -6.535818,-3.86462 -10.392992,-4.70574 -2.207617,-0.48145 -6.858828,-0.53942 -9.2024,-0.11404 -11.774496,2.13745 -20.5376419,12.30143 -21.0807522,24.45046 -0.2364314,5.28885 0.5821401,9.08752 2.9730306,13.79752 1.7044855,3.35778 5.1853296,7.32407 8.2412096,9.39037 0.627053,0.42402 0.628568,0.43788 0.329191,3.98983 -0.698528,8.28717 0.925883,16.62678 4.834613,24.81606 6.01672,12.60574 17.15676,23.39067 31.933691,30.91719 11.732724,5.97599 26.712478,9.98185 40.039558,10.707 4.067412,0.22134 11.966361,0.17312 15.373271,-0.0939 7.73328,-0.60639 15.81831,-2.04621 22.46404,-4.00042 28.40406,-8.35246 48.49379,-27.39981 52.79881,-50.06001 0.66838,-3.51836 0.98392,-9.96621 0.64347,-13.15568 l -0.22712,-2.12774 1.52209,-1.01219 c 5.7261,-3.80783 9.96451,-10.57097 11.08463,-17.68743 0.50857,-3.23108 0.20752,-8.23544 -0.6802,-11.30419 -2.0083,-6.94215 -6.6052,-12.73714 -12.61931,-15.91001 -4.17233,-2.20121 -7.42855,-3.01413 -12.07105,-3.01413 -5.57049,0 -10.92058,1.86319 -15.4593,5.38406 l -1.8524,1.43651 -3.22766,-1.81505 c -11.85514,-6.66706 -26.36077,-10.97671 -41.21409,-12.24463 -1.25577,-0.10713 -2.28253,-0.31545 -2.28253,-0.46316 0,-0.60819 8.92577,-34.4399 9.14964,-34.68018 0.14671,-0.15742 3.94697,0.75064 9.57401,2.28766 l 9.33201,2.54861 0.49666,2.36758 c 1.82606,8.69958 9.01961,14.75561 17.52734,14.75561 8.19459,0 15.58173,-5.91212 17.43099,-13.95154 0.52769,-2.294 0.52769,-6.3922 0,-8.6862 -1.16742,-5.0753 -4.76207,-9.65531 -9.40541,-11.98483 -2.91683,-1.46332 -4.97261,-1.96789 -8.02558,-1.96789 z m -23.48258,82.56774 a 14.471892,14.832195 0 0 1 14.47173,14.83204 14.471892,14.832195 0 0 1 -14.47173,14.83202 14.471892,14.832195 0 0 1 -14.47171,-14.83202 14.471892,14.832195 0 0 1 14.47171,-14.83204 z m -58.306704,0.0435 a 14.471892,14.832195 0 0 1 14.471729,14.83322 14.471892,14.832195 0 0 1 -14.471729,14.83203 14.471892,14.832195 0 0 1 -14.471729,-14.83203 14.471892,14.832195 0 0 1 14.471729,-14.8332 z m -1.049507,54.52599 c 0.975788,5.7e-4 1.920856,0.34975 2.672514,0.98747 11.859698,11.79098 45.919297,10.6188 55.538997,0.19154 0.87476,-0.65512 1.74946,-1.07617 2.77,-1.07798 2.31701,-5.5e-4 4.19565,1.92432 4.19575,4.29903 -2.7e-4,1.78127 -0.94284,2.87201 -2.43624,4.20026 -12.80252,12.12839 -50.86387,13.2175 -64.595721,-0.21519 -1.282389,-1.16701 -2.338126,-2.38692 -2.339889,-4.08624 9.4e-5,-2.37426 1.878022,-4.29893 4.194589,-4.29902 z"
       id="path852"
       inkscape:connector-curvature="0" />
  </g>
  <g
     inkscape:groupmode="layer"
     id="layer2"
     inkscape:label="face"
     style="display:inline" />
</svg>
