<?xml version="1.0" encoding="UTF-8" standalone="no"?>
<!-- Created with Inkscape (http://www.inkscape.org/) -->

<svg
   xmlns:dc="http://purl.org/dc/elements/1.1/"
   xmlns:cc="http://creativecommons.org/ns#"
   xmlns:rdf="http://www.w3.org/1999/02/22-rdf-syntax-ns#"
   xmlns:svg="http://www.w3.org/2000/svg"
   xmlns="http://www.w3.org/2000/svg"
   xmlns:xlink="http://www.w3.org/1999/xlink"
   xmlns:sodipodi="http://sodipodi.sourceforge.net/DTD/sodipodi-0.dtd"
   xmlns:inkscape="http://www.inkscape.org/namespaces/inkscape"
   width="200mm"
   height="200mm"
   viewBox="0 0 200 200"
   version="1.1"
   id="svg8"
   inkscape:version="0.92.2 2405546, 2018-03-11"
   sodipodi:docname="com.google.apps.GoogleCamera.svg">
  <defs
     id="defs2">
    <inkscape:path-effect
       effect="bspline"
       id="path-effect1001"
       is_visible="true"
       weight="33.333333"
       steps="2"
       helper_size="0"
       apply_no_weight="true"
       apply_with_weight="true"
       only_selected="false" />
    <path
       inkscape:connector-curvature="0"
       d="M 95,48 H 73 V 23 L 49.71,0.3 C 49.53,0.11 49.28,0 49,0 48.45,0 48,0.45 48,1 V 23 H 23 L 0.3,46.29 C 0.11,46.47 0,46.72 0,47 c 0,0.55 0.45,1 1,1 h 22 v 25 l 23.29,22.7 c 0.18,0.19 0.43,0.3 0.71,0.3 0.55,0 1,-0.45 1,-1 V 73 H 73 L 95.7,49.71 C 95.89,49.53 96,49.28 96,49 96,48.45 95.55,48 95,48 Z"
       id="path2" />
    <defs
       id="defs4">
      <path
         id="path1215"
         d="M 95,48 H 73 V 23 L 49.71,0.3 C 49.53,0.11 49.28,0 49,0 48.45,0 48,0.45 48,1 V 23 H 23 L 0.3,46.29 C 0.11,46.47 0,46.72 0,47 c 0,0.55 0.45,1 1,1 h 22 v 25 l 23.29,22.7 c 0.18,0.19 0.43,0.3 0.71,0.3 0.55,0 1,-0.45 1,-1 V 73 H 73 L 95.7,49.71 C 95.89,49.53 96,49.28 96,49 96,48.45 95.55,48 95,48 Z"
         inkscape:connector-curvature="0" />
    </defs>
    <clipPath
       id="clipPath8">
      <use
         id="use6"
         xlink:href="#SVGID_63_"
         overflow="visible"
         style="overflow:visible"
         x="0"
         y="0"
         width="100%"
         height="100%" />
    </clipPath>
    <radialGradient
       id="radialGradient74"
       r="77.190002"
       cx="22.860001"
       cy="23"
       gradientUnits="userSpaceOnUse">
      <stop
         id="stop70"
         offset="0"
         stop-color="#fff" />
      <stop
         id="stop72"
         offset="1"
         stop-opacity="0"
         stop-color="#fff" />
    </radialGradient>
  </defs>
  <sodipodi:namedview
     id="base"
     pagecolor="#000000"
     bordercolor="#66f266"
     borderopacity="1"
     inkscape:pageopacity="0"
     inkscape:pageshadow="2"
     inkscape:zoom="1"
     inkscape:cx="548.31553"
     inkscape:cy="473.82852"
     inkscape:document-units="mm"
     inkscape:current-layer="layer1"
     showgrid="false"
     inkscape:pagecheckerboard="true"
     inkscape:window-width="1920"
     inkscape:window-height="1046"
     inkscape:window-x="0"
     inkscape:window-y="0"
     inkscape:window-maximized="1"
     showguides="true"
     inkscape:guide-bbox="true"
     inkscape:snap-global="true"
     inkscape:snap-object-midpoints="true"
     showborder="true"
     inkscape:snap-midpoints="false"
     inkscape:snap-smooth-nodes="true" />
  <metadata
     id="metadata5">
    <rdf:RDF>
      <cc:Work
         rdf:about="">
        <dc:format>image/svg+xml</dc:format>
        <dc:type
           rdf:resource="http://purl.org/dc/dcmitype/StillImage" />
        <dc:title></dc:title>
      </cc:Work>
    </rdf:RDF>
  </metadata>
  <g
     inkscape:label="Layer 1"
     inkscape:groupmode="layer"
     id="layer1"
     transform="translate(0,-97)">
    <g
       id="g827"
       transform="matrix(1.2890218,0,0,1.2890218,-30.953114,-64.420621)">
      <path
         sodipodi:nodetypes="scssssssscccccccccc"
         inkscape:connector-curvature="0"
         id="rect847"
         d="m 34.494422,148.9022 c -8.43393,0 -8.401617,0.063 -8.401637,8.90268 v 92.86499 c 0,8.82228 0.0021,8.90268 8.401637,8.90268 H 169.24875 c 8.33108,0 8.40164,-0.14002 8.40164,-8.90268 v -92.86499 c 0,-8.85865 -0.0747,-8.90268 -8.40164,-8.90268 z m 125.897718,10.16977 c 4.07947,-7e-5 7.38655,3.30702 7.38648,7.38648 7e-5,4.07947 -3.307,7.38656 -7.38648,7.38648 -4.07947,8e-5 -7.38656,-3.30701 -7.38648,-7.38648 -8e-5,-4.07948 3.30701,-7.38655 7.38648,-7.38648 z m -59.86585,4.30688 c 22.85202,1e-4 41.37713,18.52546 41.37691,41.37748 -1e-4,22.85179 -18.52512,41.3768 -41.37691,41.3769 -22.85179,-1e-4 -41.376804,-18.52511 -41.376905,-41.3769 -2.2e-4,-22.85202 18.524887,-41.37738 41.376905,-41.37748 z"
         style="opacity:1;fill:#ffffff;fill-opacity:1;stroke:none;stroke-width:8.0125618;stroke-linecap:round;stroke-linejoin:round;stroke-miterlimit:0;stroke-dasharray:none;stroke-dashoffset:0;stroke-opacity:1" />
      <rect
         ry="1.6035115"
         rx="1.6035115"
         y="141.9648"
         x="44.394619"
         height="9.272603"
         width="24.746435"
         id="rect866"
         style="opacity:1;fill:#ffffff;fill-opacity:1;stroke:none;stroke-width:7.81404352;stroke-linecap:round;stroke-linejoin:round;stroke-miterlimit:4;stroke-dasharray:none;stroke-dashoffset:0;stroke-opacity:1" />
      <path
         inkscape:connector-curvature="0"
         id="path984"
         d="m 100.54233,168.41584 a 36.553737,36.553737 0 0 0 -3.725876,0.1943 36.553737,36.553737 0 0 0 -32.827454,36.35902 36.553737,36.553737 0 0 0 36.55333,36.55384 36.553737,36.553737 0 0 0 36.55384,-36.55384 36.553737,36.553737 0 0 0 -36.55384,-36.55332 z m 0,16.79484 a 19.758604,19.758604 0 0 1 19.75848,19.75848 19.758604,19.758604 0 0 1 -19.75848,19.759 19.758604,19.758604 0 0 1 -19.758488,-19.759 19.758604,19.758604 0 0 1 19.758488,-19.75848 z"
         style="opacity:1;fill:#ffffff;fill-opacity:1;stroke:none;stroke-width:8.83230209;stroke-linecap:round;stroke-linejoin:round;stroke-miterlimit:4;stroke-dasharray:none;stroke-dashoffset:0;stroke-opacity:1" />
    </g>
  </g>
</svg>
