<?xml version="1.0" encoding="UTF-8" standalone="no"?>
<!-- Generator: Adobe Illustrator 20.1.0, SVG Export Plug-In . SVG Version: 6.00 Build 0)  -->

<svg
   xmlns:dc="http://purl.org/dc/elements/1.1/"
   xmlns:cc="http://creativecommons.org/ns#"
   xmlns:rdf="http://www.w3.org/1999/02/22-rdf-syntax-ns#"
   xmlns:svg="http://www.w3.org/2000/svg"
   xmlns="http://www.w3.org/2000/svg"
   xmlns:sodipodi="http://sodipodi.sourceforge.net/DTD/sodipodi-0.dtd"
   xmlns:inkscape="http://www.inkscape.org/namespaces/inkscape"
   version="1.1"
   id="Ebene_1"
   x="0px"
   y="0px"
   viewBox="0 0 200 200"
   xml:space="preserve"
   sodipodi:docname="GoogleTranslate.svg"
   inkscape:version="0.92.2 2405546, 2018-03-11"
   width="200"
   height="200"><metadata
   id="metadata21"><rdf:RDF><cc:Work
       rdf:about=""><dc:format>image/svg+xml</dc:format><dc:type
         rdf:resource="http://purl.org/dc/dcmitype/StillImage" /><dc:title></dc:title></cc:Work></rdf:RDF></metadata><defs
   id="defs19" /><sodipodi:namedview
   pagecolor="#646464"
   bordercolor="#666666"
   borderopacity="1"
   objecttolerance="10"
   gridtolerance="10"
   guidetolerance="10"
   inkscape:pageopacity="0"
   inkscape:pageshadow="2"
   inkscape:window-width="1920"
   inkscape:window-height="1046"
   id="namedview17"
   showgrid="false"
   inkscape:pagecheckerboard="true"
   inkscape:zoom="1.888"
   inkscape:cx="307.55294"
   inkscape:cy="6.2812552"
   inkscape:window-x="0"
   inkscape:window-y="0"
   inkscape:window-maximized="1"
   inkscape:current-layer="Ebene_1" />
<style
   type="text/css"
   id="style2">
	.st0{fill:#D9D9D9;}
	.st1{fill:#4352B8;}
	.st2{fill:#617D8B;}
	.st3{fill:#4F8BF5;}
	.st4{fill:#FFFFFF;}
	.st5{opacity:0.2;fill:#FFFFFF;}
</style>

<g
   id="g851"
   transform="matrix(0.1971881,0,0,0.1971881,1.2084681,159.05621)"><path
     sodipodi:nodetypes="ccssssccccccccccccccccccccccc"
     inkscape:connector-curvature="0"
     id="path4"
     d="M 441.83637,-119.81162 545.59961,198.5 h 388 c 36.5,0 66.40039,-29.40039 66.40039,-65.40039 V -534 c 0,-36 -29.90039,-65.40039 -66.40039,-65.40039 H 444.93795 Z M 688,-425 h 61 v 63 h 188 v 38.90039 h -84.40039 c -8.2,52 -46.9,108.69883 -85,153.79883 28.4,30.5 67.10039,68.50039 119.90039,116.40039 l -32,32 c -49.3,-45.9 -87.40039,-84.40039 -116.90039,-116.40039 -29.5,31.3 -53,51.5 -53,51.5 L 670,-134.5 c 0,0 16.89961,-13.49922 39.09961,-36.19922 -68.4,-80.2 -70.5,-108.30078 -70.5,-108.30078 h 50.70117 c 0,0 0.2,18.8 49,76.5 27.5,-33 55.7,-75.5 68.5,-120.5 H 568 v -39 h 120 z"
     style="fill:#fcfcfc;fill-opacity:1" /><path
     inkscape:connector-curvature="0"
     style="fill:#ffffff;fill-opacity:1"
     id="path10"
     d="m 68.300781,-799.80078 c -36.5,0 -66.4003904,29.9 -66.4003904,66.5 v 677 c 0,36.5 29.9003904,66.40039 66.4003904,66.40039 H 716.40039 L 456.30078,-799.80078 Z M 282,-547.19922 c 38.8,0 73.40039,14.59961 100.40039,38.09961 l -44.30078,44.29883 c -15.3,-12.5 -34.59961,-20.09961 -56.09961,-20.09961 -49.8,0 -90,40.2 -90,90 0,49.8 40.2,90 90,90 42.2,0 74.09922,-21.39883 81.69922,-58.79883 H 282 V -422.5 h 67.80078 56.79883 17.30078 c 2.1,9 3.5,18.69922 3.5,27.69922 0,96.9 -69.20039,152.30078 -145.40039,152.30078 -84.4,0 -152.30078,-67.90039 -152.30078,-152.40039 0,-84.5 67.80078,-152.29883 152.30078,-152.29883 z" /><polygon
     transform="translate(0,-800)"
     style="fill:#ebebeb;fill-opacity:0.5548782"
     id="polygon6"
     points="546.8,998.5 485.1,810 716.3,810 "
     class="st1" /></g>




</svg>