<?xml version="1.0" encoding="UTF-8" standalone="no"?>
<!-- Created with Inkscape (http://www.inkscape.org/) -->

<svg
   xmlns:dc="http://purl.org/dc/elements/1.1/"
   xmlns:cc="http://creativecommons.org/ns#"
   xmlns:rdf="http://www.w3.org/1999/02/22-rdf-syntax-ns#"
   xmlns:svg="http://www.w3.org/2000/svg"
   xmlns="http://www.w3.org/2000/svg"
   xmlns:sodipodi="http://sodipodi.sourceforge.net/DTD/sodipodi-0.dtd"
   xmlns:inkscape="http://www.inkscape.org/namespaces/inkscape"
   width="200mm"
   height="200mm"
   viewBox="0 0 200 200"
   version="1.1"
   id="svg8"
   inkscape:version="0.92.2 2405546, 2018-03-11"
   sodipodi:docname="com.google.android.apps.maps.svg">
  <defs
     id="defs2">
    <inkscape:path-effect
       effect="bspline"
       id="path-effect836"
       is_visible="true"
       weight="33.333333"
       steps="2"
       helper_size="0"
       apply_no_weight="true"
       apply_with_weight="true"
       only_selected="false" />
    <inkscape:path-effect
       effect="bspline"
       id="path-effect836-3"
       is_visible="true"
       weight="33.333333"
       steps="2"
       helper_size="0"
       apply_no_weight="true"
       apply_with_weight="true"
       only_selected="false" />
  </defs>
  <sodipodi:namedview
     id="base"
     pagecolor="#5c47ff"
     bordercolor="#666666"
     borderopacity="1.0"
     inkscape:pageopacity="0"
     inkscape:pageshadow="2"
     inkscape:zoom="0.98994949"
     inkscape:cx="136.49884"
     inkscape:cy="344.6518"
     inkscape:document-units="mm"
     inkscape:current-layer="layer1"
     showgrid="false"
     inkscape:pagecheckerboard="true"
     inkscape:window-width="1920"
     inkscape:window-height="1046"
     inkscape:window-x="0"
     inkscape:window-y="0"
     inkscape:window-maximized="1"
     showguides="true"
     inkscape:guide-bbox="true" />
  <metadata
     id="metadata5">
    <rdf:RDF>
      <cc:Work
         rdf:about="">
        <dc:format>image/svg+xml</dc:format>
        <dc:type
           rdf:resource="http://purl.org/dc/dcmitype/StillImage" />
        <dc:title />
      </cc:Work>
    </rdf:RDF>
  </metadata>
  <g
     inkscape:label="Layer 1"
     inkscape:groupmode="layer"
     id="layer1"
     transform="translate(0,-97)">
    <path
       style="fill:#ffffff;fill-opacity:1;stroke-width:0.23530346"
       d="m 63.450162,114.85721 -49.312296,0.11747 -1.726067,0.63054 c -2.4517119,0.89558 -4.1410088,1.96255 -5.9114631,3.73298 -1.7704433,1.77047 -2.8368635,3.45976 -3.7324336,5.91147 l -0.6305407,1.72553 -0.0612,75.76773 c -0.0337,41.67224 -0.010624,75.89991 0.051357,76.06167 0.061942,0.16178 0.1954633,0.29452 0.2966932,0.29452 0.1012329,0 23.6775982,-25.02206 54.0681282,-53.88454 27.430512,-26.0513 34.596205,-34.14901 48.43309,-48.2135 -0.17795,-0.25996 -0.35334,-0.51661 -0.50433,-0.74364 -11.151045,-17.33585 -12.27687,-39.638 4.04389,-59.11957 0.633,-0.75447 1.29175,-1.48591 1.97031,-2.19871 z m -19.38342,10.15315 c 2.555252,-0.0102 5.350131,0.21822 7.034855,0.64037 3.772207,0.94522 7.285729,2.62565 10.29138,4.92194 0.754033,0.57606 1.430861,1.20427 1.50423,1.3955 0.150094,0.39111 -6.886417,7.5971 -7.418425,7.5971 -0.172371,0 -0.78455,-0.32386 -1.36053,-0.72015 -2.834073,-1.9499 -5.94895,-2.90027 -9.508394,-2.90027 -2.973495,0 -4.759031,0.42214 -7.529891,1.77906 -1.628371,0.79744 -2.395903,1.37617 -4.129119,3.11609 -1.718276,1.72493 -2.317994,2.52298 -3.110091,4.13733 -1.242731,2.53273 -1.733169,4.66333 -1.733169,7.52989 0,4.96219 1.721658,8.85939 5.43009,12.29283 1.850261,1.71305 4.54522,3.18028 7.07201,3.85046 2.041596,0.54069 6.160355,0.53713 8.235289,-0.008 4.181268,-1.0989 7.667911,-3.86075 9.611118,-7.61349 0.555,-1.0718 0.974386,-2.13098 0.931606,-2.35332 -0.07088,-0.36875 -0.718814,-0.41451 -7.369251,-0.52183 l -7.291117,-0.11746 -0.06392,-5.0427 c -0.04892,-3.87667 0.0056,-5.08588 0.235498,-5.23175 0.395442,-0.25157 25.151934,-0.24675 25.547865,0.004 0.746216,0.4733 0.984201,6.36933 0.409797,10.15151 -1.872079,12.32668 -9.607043,20.22494 -21.415469,21.86733 v 9.9e-4 c -2.418306,0.33637 -7.598461,0.27549 -9.735695,-0.11473 -13.052808,-2.38318 -22.626283,-13.87648 -22.626283,-27.1641 0,-13.43435 9.664698,-24.90034 22.938278,-27.21329 1.068938,-0.18627 2.516192,-0.27782 4.049345,-0.28358 z m 48.192164,96.90999 c -0.269499,0 -73.297452,72.96864 -73.297452,73.23791 0,0.0973 32.983557,0.17649 73.296909,0.17649 40.313307,0 73.296877,-0.079 73.296877,-0.17593 0,-0.26893 -73.027197,-73.23847 -73.296334,-73.23847 z"
       id="path833"
       inkscape:connector-curvature="0" />
    <path
       style="opacity:1;fill:#ffffff;fill-opacity:1;stroke:none;stroke-width:6.26494789;stroke-linecap:round;stroke-linejoin:bevel;stroke-miterlimit:4;stroke-dasharray:none;stroke-dashoffset:0;stroke-opacity:1"
       d="m 182.33509,184.98777 c -0.28842,0.38947 -0.56624,0.76833 -0.86604,1.16929 -10.56508,14.1301 -13.90232,18.95785 -17.53223,25.36592 -6.68171,11.79552 -10.70089,23.25233 -12.9119,36.80472 -0.30943,1.8967 -0.52389,3.04209 -0.74801,3.78817 l 32.05818,32.05819 z m -62.34222,9.36906 -13.7375,13.7375 37.69316,37.69316 c -2.78659,-14.82833 -7.52758,-26.75442 -15.82964,-39.83612 -1.88105,-2.96401 -5.95055,-8.7437 -8.12602,-11.59454 z"
       id="rect835"
       inkscape:connector-curvature="0"
       sodipodi:nodetypes="cscccccccccc" />
    <path
       style="fill:none;stroke:#ffffff;stroke-width:2.98487639;stroke-miterlimit:4;stroke-dasharray:none;stroke-opacity:1"
       d="m 109.31628,117.17723 c 7.98218,-9.51387 19.70345,-15.75786 32.48513,-17.304962 2.93475,-0.355199 9.0143,-0.294967 12.20527,0.120935 22.78327,2.969667 40.45729,20.948407 43.2465,43.992207 0.55546,4.589 0.17979,11.56994 -0.84474,15.6978 -2.04486,8.23881 -5.78854,15.04748 -15.17993,27.60783 -10.56507,14.13011 -13.90197,18.95813 -17.53187,25.36618 -6.68172,11.79552 -10.7009,23.2519 -12.91192,36.80431 -0.62701,3.84333 -0.864,4.62012 -1.58174,5.18469 -1.03089,0.8109 -3.01226,0.58123 -3.78591,-0.43883 -0.34007,-0.44836 -0.81238,-2.43526 -1.61796,-6.80626 -2.77418,-15.05245 -7.52876,-27.09253 -15.9205,-40.31556 -2.2337,-3.51969 -7.58598,-11.06133 -9.14337,-12.88348 -1.73466,-2.09121 -10.43819,-13.59351 -13.44796,-18.11935 -11.11066,-17.27306 -12.232649,-39.4945 4.029,-58.90551 z"
       id="path845"
       inkscape:connector-curvature="0"
       sodipodi:nodetypes="csssssssccssccc" />
    <circle
       style="opacity:1;fill:#fafafa;fill-opacity:1;stroke:none;stroke-width:3.33553004;stroke-linecap:round;stroke-linejoin:bevel;stroke-miterlimit:4;stroke-dasharray:none;stroke-dashoffset:0;stroke-opacity:1"
       id="path878"
       cx="148.01289"
       cy="146.76755"
       r="17.305737" />
  </g>
</svg>
