<?xml version="1.0" encoding="UTF-8" standalone="no"?>
<!-- Created with Inkscape (http://www.inkscape.org/) -->

<svg
   xmlns:dc="http://purl.org/dc/elements/1.1/"
   xmlns:cc="http://creativecommons.org/ns#"
   xmlns:rdf="http://www.w3.org/1999/02/22-rdf-syntax-ns#"
   xmlns:svg="http://www.w3.org/2000/svg"
   xmlns="http://www.w3.org/2000/svg"
   xmlns:sodipodi="http://sodipodi.sourceforge.net/DTD/sodipodi-0.dtd"
   xmlns:inkscape="http://www.inkscape.org/namespaces/inkscape"
   width="200mm"
   height="200mm"
   viewBox="0 0 200 200"
   version="1.1"
   id="svg8"
   inkscape:version="0.92.2 2405546, 2018-03-11"
   sodipodi:docname="googleplay.svg">
  <defs
     id="defs2" />
  <sodipodi:namedview
     id="base"
     pagecolor="#59207b"
     bordercolor="#666666"
     borderopacity="1.0"
     inkscape:pageopacity="0"
     inkscape:pageshadow="2"
     inkscape:zoom="0.49497475"
     inkscape:cx="-368.72154"
     inkscape:cy="207.81489"
     inkscape:document-units="mm"
     inkscape:current-layer="layer1"
     showgrid="false"
     inkscape:pagecheckerboard="true"
     inkscape:window-width="1920"
     inkscape:window-height="1046"
     inkscape:window-x="0"
     inkscape:window-y="0"
     inkscape:window-maximized="1" />
  <metadata
     id="metadata5">
    <rdf:RDF>
      <cc:Work
         rdf:about="">
        <dc:format>image/svg+xml</dc:format>
        <dc:type
           rdf:resource="http://purl.org/dc/dcmitype/StillImage" />
        <dc:title></dc:title>
      </cc:Work>
    </rdf:RDF>
  </metadata>
  <g
     inkscape:label="Layer 1"
     inkscape:groupmode="layer"
     id="layer1"
     transform="translate(0,-97)">
    <path
       style="fill:#ffffff;fill-opacity:1;stroke-width:0.20802975"
       d="m 18.97142,263.55604 c -7.399138,-1.12278 -13.2067296,-6.18838 -15.4299341,-13.45852 -0.499987,-1.63504 -0.5600336,-2.16233 -0.5637278,-4.9504 l -0.004,-3.12045 7.0191522,-40.14974 c 3.8605307,-22.08236 7.3018647,-41.2263 7.6473987,-42.54209 2.81847,-10.73266 9.897448,-20.3218 19.429838,-26.31958 5.629267,-3.54196 12.735919,-5.90518 19.65881,-6.5373 3.253826,-0.2971 84.613503,-0.30326 87.610473,-0.005 10.70036,1.05907 20.02327,5.48061 27.47394,13.02995 5.55936,5.63299 9.26921,12.06942 11.30738,19.61776 0.89654,3.32034 1.40345,6.16037 8.50481,47.04904 5.7404,33.05244 6.35559,36.75516 6.35559,38.83594 0,2.63538 -0.3456,4.53111 -1.25678,6.89387 -1.76593,4.57922 -5.98136,8.78805 -10.60091,10.58438 -2.54807,0.99078 -3.69647,1.18005 -7.073,1.16561 -2.88603,-0.0127 -3.41657,-0.0725 -5.05443,-0.57392 -2.06217,-0.63123 -3.82443,-1.47021 -5.65912,-2.69417 -0.7706,-0.51408 -7.26212,-6.8328 -16.96557,-16.5139 l -15.7174,-15.6812 -35.40277,0.056 -35.402786,0.056 -15.865401,15.83181 c -17.231132,17.19489 -17.079061,17.05997 -20.73284,18.39344 -2.985803,1.08971 -6.402052,1.47034 -9.27854,1.03383 z m 46.910713,-79.008 c 0,-6.0005 0.06409,-8.13559 0.249636,-8.32119 0.185564,-0.18557 2.317129,-0.24964 8.30518,-0.24964 h 8.055553 l 0.07052,-5.25274 c 0.03878,-2.88901 -0.01217,-5.36976 -0.113479,-5.51279 -0.141808,-0.20039 -2.033923,-0.26004 -8.249442,-0.26004 -7.489239,0 -8.075454,-0.026 -8.205705,-0.36405 -0.07714,-0.20022 -0.119493,-3.83666 -0.09409,-8.08097 0.0254,-4.24431 -0.02061,-7.82501 -0.102304,-7.95714 -0.105774,-0.17117 -1.632594,-0.24022 -5.311453,-0.24022 -4.271555,0 -5.206498,0.0525 -5.414949,0.30357 -0.193237,0.23284 -0.216605,2.04453 -0.100286,7.77461 0.0834,4.10904 0.08993,7.71698 0.01454,8.01761 l -0.137174,0.54659 h -8.067582 c -5.997422,0 -8.131646,0.064 -8.317225,0.24965 -0.284453,0.28445 -0.32573,3.1505 -0.112515,7.81151 l 0.135611,2.96441 h 8.039198 c 5.975337,0 8.103285,0.064 8.288834,0.24964 0.18558,0.1856 0.249637,2.32069 0.249637,8.32119 v 8.07156 h 5.408767 5.408776 z m 76.823687,7.65385 c 1.58658,-0.59364 2.71339,-1.64266 3.51631,-3.27361 0.59348,-1.2055 0.68071,-1.58956 0.6714,-2.95569 -0.0127,-1.91947 -0.55736,-3.1956 -1.96576,-4.60881 -2.45788,-2.46626 -6.68412,-2.46626 -9.142,0 -1.40841,1.41321 -1.95269,2.68934 -1.96576,4.60881 -0.009,1.36613 0.078,1.75019 0.67139,2.95569 0.7905,1.60571 1.92016,2.67205 3.45728,3.26341 1.40936,0.54221 3.32418,0.54632 4.75714,0.0109 z m -15.14289,-15.69092 c 4.08583,-1.8668 5.13523,-7.38747 1.99849,-10.51353 -2.9952,-2.62621 -6.69675,-2.52912 -9.25371,-0.21525 -3.14587,2.89975 -2.59644,8.19398 1.07357,10.34477 2.02124,1.18451 4.14136,1.31621 6.18165,0.38401 z m 31.24775,-0.13973 c 2.43155,-1.16639 3.69523,-3.37466 3.5588,-6.21883 -0.12265,-2.5556 -1.51571,-4.59829 -3.87756,-5.68562 -1.40972,-0.64898 -3.90777,-0.61366 -5.34131,0.0756 -4.20897,2.02349 -5.13884,7.48791 -1.82337,10.715 2.06263,2.00764 4.77778,2.4118 7.48344,1.11393 z m -15.70673,-15.42139 c 2.37612,-1.08781 3.78213,-3.3035 3.79709,-5.98362 0.007,-1.29869 -0.0889,-1.75908 -0.57389,-2.74653 -2.46293,-5.01548 -9.47784,-5.01548 -11.94076,0 -1.1554,2.3528 -0.62169,5.45164 1.27014,7.37486 1.9572,1.98969 4.89428,2.52417 7.44742,1.35529 z"
       id="path843"
       inkscape:connector-curvature="0"
       sodipodi:nodetypes="ccccsscccscssscscsscccscccscscccscccscsccscscssscccscccscccccccccccccscccccccscc" />
  </g>
</svg>
