<?xml version="1.0" encoding="UTF-8" standalone="no"?>
<svg
   xmlns:dc="http://purl.org/dc/elements/1.1/"
   xmlns:cc="http://creativecommons.org/ns#"
   xmlns:rdf="http://www.w3.org/1999/02/22-rdf-syntax-ns#"
   xmlns:svg="http://www.w3.org/2000/svg"
   xmlns="http://www.w3.org/2000/svg"
   xmlns:sodipodi="http://sodipodi.sourceforge.net/DTD/sodipodi-0.dtd"
   xmlns:inkscape="http://www.inkscape.org/namespaces/inkscape"
   version="1.1"
   width="200"
   height="200"
   viewBox="0 0 200 200"
   overflow="visible"
   enable-background="new 0 0 266 100"
   xml:space="preserve"
   id="svg12"
   sodipodi:docname="snapseed.svg"
   style="overflow:visible"
   inkscape:version="0.92.2 2405546, 2018-03-11"><metadata
   id="metadata18"><rdf:RDF><cc:Work
       rdf:about=""><dc:format>image/svg+xml</dc:format><dc:type
         rdf:resource="http://purl.org/dc/dcmitype/StillImage" /><dc:title></dc:title></cc:Work></rdf:RDF></metadata><defs
   id="defs16"><inkscape:path-effect
   effect="bspline"
   id="path-effect844"
   is_visible="true"
   weight="33.333333"
   steps="2"
   helper_size="0"
   apply_no_weight="true"
   apply_with_weight="true"
   only_selected="false" /><inkscape:path-effect
   effect="bspline"
   id="path-effect835"
   is_visible="true"
   weight="33.333333"
   steps="2"
   helper_size="0"
   apply_no_weight="true"
   apply_with_weight="true"
   only_selected="false" /><inkscape:path-effect
   effect="bspline"
   id="path-effect831"
   is_visible="true"
   weight="33.333333"
   steps="2"
   helper_size="0"
   apply_no_weight="true"
   apply_with_weight="true"
   only_selected="false" />
		
		
	</defs><sodipodi:namedview
   pagecolor="#ffffff"
   bordercolor="#666666"
   borderopacity="1"
   objecttolerance="10"
   gridtolerance="10"
   guidetolerance="10"
   inkscape:pageopacity="0"
   inkscape:pageshadow="2"
   inkscape:window-width="1920"
   inkscape:window-height="1046"
   id="namedview14"
   showgrid="false"
   inkscape:pagecheckerboard="true"
   inkscape:zoom="2.8284271"
   inkscape:cx="118.35443"
   inkscape:cy="98.175104"
   inkscape:window-x="0"
   inkscape:window-y="0"
   inkscape:window-maximized="1"
   inkscape:current-layer="svg12" />
	
	
<path
   sodipodi:nodetypes="cccccccccccccccccccccccccccccccccccccccccccc"
   style="fill:#ffffff;fill-opacity:1;stroke:none;stroke-width:0.25974441;stroke-linecap:butt;stroke-linejoin:miter;stroke-miterlimit:4;stroke-dasharray:none;stroke-opacity:1"
   d="m 64.390619,1.9648685 c -61.5798758,159.7697115 -30.789939,79.8848575 0,0 z M 67.33693,1.5430128 c -62.6970601,160.0509572 -31.34853,80.0254752 0,0 z m 0,0 V 71.741528 L 102.85119,36.938572 C 94.919174,25.59731 83.581133,13.786308 67.33693,1.5430128 Z M 64.390619,1.9648685 C 48.181963,14.251977 36.967167,25.958129 29.145398,37.197209 L 64.390619,71.736507 Z M 104.20923,38.92229 68.192754,74.217412 67.33693,75.056097 V 137.77925 L 120.51352,85.667734 C 119.20477,71.20948 115.33417,55.581109 104.20923,38.92229 Z M 27.792471,39.188447 C 16.86377,55.652238 13.101912,71.11506 11.518954,85.921334 L 64.390619,137.73405 V 75.051074 L 63.539913,74.217412 Z M 120.74412,88.756292 68.213258,140.23505 67.33693,141.0938 v 54.949 c 40.56203,-25.64142 53.84253,-62.72786 53.77618,-99.288858 -0.0564,-2.618757 -0.18607,-5.293574 -0.36899,-7.99765 z M 67.33693,196.0428 c -0.27426,0.17338 -0.535515,0.35249 -0.812265,0.52481 h 0.812265 z m -0.812265,0.52481 c -0.292709,-0.18705 -1.84377,-0.38143 -2.134046,-0.57001 v 0.57002 z m -2.134046,-0.57 V 141.04862 L 63.560404,140.23506 11.242218,88.964725 c -0.232349,2.613035 -0.428188,5.214018 -0.573969,7.789231 0.0039,39.924034 17.300429,75.583574 53.72237,99.243654 z"
   id="path812"
   inkscape:connector-curvature="0" /><path
   style="fill:#ffffff;fill-opacity:1;stroke:none;stroke-width:1.27053475px;stroke-linecap:butt;stroke-linejoin:miter;stroke-opacity:1"
   d="m 69.074831,198.45414 116.849319,0.16845 c 0,0 2.68567,0.0154 3.36722,-0.75642 0.69865,-0.79118 0.69855,-3.22252 0.69855,-3.22252 V 146.30208 96.192742 c 0,0 -9.6e-4,-1.488927 -0.45299,-1.871397 -0.59315,-0.501875 -1.87793,-0.494643 -1.87793,-0.494643 l -63.23049,0.01359 c 2.54691,51.287378 -23.16705,86.044998 -55.353679,104.613848 z"
   id="path909"
   inkscape:connector-curvature="0"
   sodipodi:nodetypes="ccscccsccc" /></svg>