<?xml version="1.0" encoding="UTF-8" standalone="no"?>
<!-- Created with Inkscape (http://www.inkscape.org/) -->

<svg
   xmlns:dc="http://purl.org/dc/elements/1.1/"
   xmlns:cc="http://creativecommons.org/ns#"
   xmlns:rdf="http://www.w3.org/1999/02/22-rdf-syntax-ns#"
   xmlns:svg="http://www.w3.org/2000/svg"
   xmlns="http://www.w3.org/2000/svg"
   xmlns:sodipodi="http://sodipodi.sourceforge.net/DTD/sodipodi-0.dtd"
   xmlns:inkscape="http://www.inkscape.org/namespaces/inkscape"
   width="200mm"
   height="200mm"
   viewBox="0 0 200 200"
   version="1.1"
   id="svg834"
   inkscape:version="0.92.2 2405546, 2018-03-11"
   sodipodi:docname="tinder.svg">
  <defs
     id="defs828" />
  <sodipodi:namedview
     id="base"
     pagecolor="#ffffff"
     bordercolor="#666666"
     borderopacity="1.0"
     inkscape:pageopacity="0.0"
     inkscape:pageshadow="2"
     inkscape:zoom="0.35"
     inkscape:cx="-789.47813"
     inkscape:cy="292.92105"
     inkscape:document-units="mm"
     inkscape:current-layer="layer1"
     showgrid="false"
     inkscape:pagecheckerboard="true"
     inkscape:window-width="1920"
     inkscape:window-height="1046"
     inkscape:window-x="0"
     inkscape:window-y="0"
     inkscape:window-maximized="1" />
  <metadata
     id="metadata831">
    <rdf:RDF>
      <cc:Work
         rdf:about="">
        <dc:format>image/svg+xml</dc:format>
        <dc:type
           rdf:resource="http://purl.org/dc/dcmitype/StillImage" />
        <dc:title></dc:title>
      </cc:Work>
    </rdf:RDF>
  </metadata>
  <g
     inkscape:label="Layer 1"
     inkscape:groupmode="layer"
     id="layer1"
     transform="translate(0,-97)">
    <path
       style="fill:#ffffff;fill-opacity:1;stroke-width:0.35004288"
       d="m 106.24504,100.92657 c -0.74379,0.0203 -1.48546,0.26035 -2.12317,0.72576 -1.45899,1.06243 -1.96423,3.01378 -1.21754,4.66013 0.1575,0.33775 15.12575,34.12925 -10.379451,61.63765 -2.627759,2.8291 -5.403578,5.44973 -8.525264,8.03825 l -0.09788,0.0852 c -0.339207,0.29102 -0.779963,0.46315 -1.261324,0.46315 -0.715168,0 -1.339892,-0.38394 -1.679109,-0.95972 l 7.95e-4,-7.9e-4 0.07639,-0.0422 c -3.579877,-5.99732 -5.159595,-13.1569 -4.901247,-21.35415 0.04795,-1.57003 -0.667994,-3.00644 -2.102469,-3.61923 -1.434467,-0.60882 -2.706401,-0.27962 -3.797493,0.83876 -1.688602,1.73514 -42.188378,43.02276 -38.984791,84.88576 v 0.46236 c 0,30.15404 31.971637,53.77369 70.528183,53.77369 0.86004,0 0.9567,-0.0202 1.82234,-0.0422 32.59077,-0.91362 60.12338,-18.85936 67.12143,-43.68789 1.67531,-4.08572 24.50685,-64.97028 -61.8183,-144.86342 -0.74526,-0.69 -1.7048,-1.02726 -2.66111,-1.0011 z m 3.14574,111.58044 h 5.77582 v 21.58411 c 0,1.64932 -0.30183,3.19473 -0.87058,4.63705 -0.5686,1.44215 -1.38243,2.70046 -2.40327,3.77522 -1.02083,1.07409 -2.23802,1.91952 -3.65347,2.53776 -1.41493,0.6179 -2.96854,0.92789 -4.65933,0.92789 -1.72109,0 -3.28892,-0.30974 -4.70311,-0.92868 -1.415186,-0.61913 -2.632417,-1.46689 -3.653449,-2.54334 -1.020599,-1.07648 -1.815589,-2.338 -2.38418,-3.78239 -0.56867,-1.44453 -0.852283,-2.99268 -0.852283,-4.64419 0,-1.62243 0.285996,-3.15721 0.854671,-4.60125 0.568676,-1.44471 1.343322,-2.71245 2.321311,-3.80305 0.976793,-1.0917 2.118479,-1.94723 3.416313,-2.56643 1.297721,-0.61927 2.700097,-0.92868 4.186637,-0.92868 2.68402,0 4.83222,0.88217 6.62492,2.64919 z m -57.961915,4.38161 h 5.776614 v 5.7766 h 3.98371 v 5.1782 h -3.98371 v 8.05812 c 0,1.58979 0.382348,2.70864 1.09739,3.35584 0.714109,0.64835 1.690781,0.92763 3.284213,0.83954 v 5.29836 c -1.792699,0.17689 -3.146917,0.0736 -4.4007,-0.30957 -1.254459,-0.38182 -2.330491,-1.00018 -3.175984,-1.85418 -0.84667,-0.85348 -1.487373,-1.9053 -1.925008,-3.15609 -0.437293,-1.25149 -0.656525,-2.65703 -0.656525,-4.21688 z m 29.654194,5.23785 c 1.575751,0 2.982526,0.25006 4.222444,0.75044 1.239848,0.50046 2.289272,1.20022 3.149722,2.09769 0.860274,0.89847 1.498464,1.96377 1.950474,3.19985 0.452331,1.23621 0.660501,2.60537 0.660501,4.10706 v 13.0899 H 85.289587 V 232.1486 c 0,-0.32348 -0.02358,-0.7283 -0.111415,-1.21356 -0.08761,-0.48653 -0.258497,-0.96404 -0.549094,-1.4356 -0.291773,-0.47019 -0.713966,-0.86732 -1.267684,-1.19209 -0.554831,-0.3235 -1.311436,-0.48544 -2.274361,-0.48544 -1.283543,0 -2.32899,0.39695 -3.145745,1.19211 -0.81708,0.79496 -1.215959,1.84007 -1.215959,3.13458 v 13.22281 h -5.776618 v -13.0899 c 0,-1.4425 0.232902,-2.78192 0.71382,-4.01792 0.481091,-1.23626 1.158037,-2.3108 2.048357,-3.22374 0.889296,-0.9114 1.954283,-1.62495 3.194286,-2.14066 1.239152,-0.51466 2.631213,-0.77272 4.177882,-0.77272 z m 46.209741,0 c 1.34145,0 2.62506,0.21359 3.85001,0.63981 1.22513,0.42726 2.32534,1.0451 3.30332,1.85419 0.97697,0.81027 1.80906,1.80331 2.494,2.98022 0.68528,1.17809 1.15937,2.53174 1.42127,4.06248 l -15.92529,6.75624 c 0.58354,0.76587 1.28412,1.36095 2.10088,1.78735 0.81656,0.42706 1.72027,0.64139 2.71204,0.64139 0.93309,0 1.83739,-0.21274 2.71285,-0.63982 0.87438,-0.42605 1.55972,-1.01175 2.0555,-2.00777 h 6.16974 c -0.67113,2.39021 -1.94759,4.20058 -3.82853,5.62861 -1.88113,1.42803 -4.23762,2.13987 -7.06579,2.13987 -1.60443,0 -3.10577,-0.30999 -4.50575,-0.92789 -1.4003,-0.61824 -2.62561,-1.46367 -3.67653,-2.53776 -1.04943,-1.07476 -1.87342,-2.33307 -2.47092,-3.77522 -0.59886,-1.44232 -0.89686,-2.98773 -0.89686,-4.63705 0,-1.64828 0.298,-3.20054 0.89686,-4.65773 0.5975,-1.45728 1.42149,-2.72228 2.47092,-3.79669 1.05092,-1.07418 2.27623,-1.92745 3.67653,-2.56085 1.39997,-0.63331 2.90134,-0.94938 4.50575,-0.94938 z m 21.70906,0.005 c 0.64469,-0.003 1.31707,0.0404 2.01733,0.12888 v 5.47421 c -1.83744,-0.32375 -3.34373,-0.0511 -4.46596,0.81648 -1.12222,0.86922 -1.70856,2.11308 -1.70856,3.73145 v 13.0899 h -5.77662 v -13.0899 c 0,-1.61837 0.2949,-3.0905 0.83559,-4.41503 0.53882,-1.32461 1.34385,-2.44339 2.36586,-3.35583 1.01967,-0.91164 2.26727,-1.57393 3.74021,-1.98707 0.92057,-0.2576 1.91766,-0.38869 2.99215,-0.39311 z m -85.820817,0.53475 h 5.775819 v 22.70618 h -5.775819 z m 64.068787,4.58295 c -0.84652,0 -1.63451,0.16165 -2.36349,0.48541 -0.72901,0.32468 -1.36322,0.77213 -1.90273,1.34726 -0.54003,0.57369 -0.97802,1.25807 -1.31224,2.05315 -0.33575,0.79498 -0.51871,1.67714 -0.54751,2.64917 l 10.58794,-4.50336 c -0.52471,-0.64737 -1.16694,-1.14907 -1.925,-1.50166 -0.75876,-0.35274 -1.60389,-0.52997 -2.53697,-0.52997 z m -23.69137,0.35251 c -0.7908,0 -1.53767,0.16353 -2.24013,0.48703 -0.70345,0.32384 -1.31817,0.77934 -1.845441,1.36716 -0.526767,0.59003 -0.9432,1.28122 -1.250978,2.07621 -0.308153,0.79479 -0.460757,1.66301 -0.460757,2.60461 0,0.9125 0.152594,1.75953 0.460757,2.53936 0.307759,0.77984 0.724211,1.45699 1.250978,2.03084 0.527271,0.57389 1.141991,1.02297 1.845441,1.34647 0.70244,0.3245 1.44933,0.48542 2.24013,0.48542 0.78987,0 1.53596,-0.16861 2.23935,-0.50691 0.70235,-0.33898 1.31655,-0.79471 1.84383,-1.36875 0.52796,-0.57401 0.94476,-1.25147 1.25177,-2.03163 0.30802,-0.77952 0.46236,-1.61139 0.46236,-2.4948 0,-0.91148 -0.15434,-1.76553 -0.46236,-2.56085 -0.30698,-0.79479 -0.72381,-1.48496 -1.25177,-2.07542 -0.52728,-0.58755 -1.14147,-1.0516 -1.84383,-1.39023 -0.70337,-0.33772 -1.44948,-0.50851 -2.23935,-0.50851 z"
       id="path14-3"
       inkscape:connector-curvature="0" />
  </g>
</svg>
