<?xml version="1.0" encoding="UTF-8" standalone="no"?>
<!-- Created with Inkscape (http://www.inkscape.org/) -->

<svg
   xmlns:dc="http://purl.org/dc/elements/1.1/"
   xmlns:cc="http://creativecommons.org/ns#"
   xmlns:rdf="http://www.w3.org/1999/02/22-rdf-syntax-ns#"
   xmlns:svg="http://www.w3.org/2000/svg"
   xmlns="http://www.w3.org/2000/svg"
   xmlns:xlink="http://www.w3.org/1999/xlink"
   xmlns:sodipodi="http://sodipodi.sourceforge.net/DTD/sodipodi-0.dtd"
   xmlns:inkscape="http://www.inkscape.org/namespaces/inkscape"
   width="200mm"
   height="200mm"
   viewBox="0 0 200 200"
   version="1.1"
   id="svg8"
   inkscape:version="0.92.2 2405546, 2018-03-11"
   sodipodi:docname="com.google.android.GoogleCamera.svg">
  <defs
     id="defs2">
    <inkscape:path-effect
       effect="bspline"
       id="path-effect1001"
       is_visible="true"
       weight="33.333333"
       steps="2"
       helper_size="0"
       apply_no_weight="true"
       apply_with_weight="true"
       only_selected="false" />
    <path
       inkscape:connector-curvature="0"
       d="M 95,48 H 73 V 23 L 49.71,0.3 C 49.53,0.11 49.28,0 49,0 48.45,0 48,0.45 48,1 V 23 H 23 L 0.3,46.29 C 0.11,46.47 0,46.72 0,47 c 0,0.55 0.45,1 1,1 h 22 v 25 l 23.29,22.7 c 0.18,0.19 0.43,0.3 0.71,0.3 0.55,0 1,-0.45 1,-1 V 73 H 73 L 95.7,49.71 C 95.89,49.53 96,49.28 96,49 96,48.45 95.55,48 95,48 Z"
       id="path2" />
    <defs
       id="defs4">
      <path
         id="path1215"
         d="M 95,48 H 73 V 23 L 49.71,0.3 C 49.53,0.11 49.28,0 49,0 48.45,0 48,0.45 48,1 V 23 H 23 L 0.3,46.29 C 0.11,46.47 0,46.72 0,47 c 0,0.55 0.45,1 1,1 h 22 v 25 l 23.29,22.7 c 0.18,0.19 0.43,0.3 0.71,0.3 0.55,0 1,-0.45 1,-1 V 73 H 73 L 95.7,49.71 C 95.89,49.53 96,49.28 96,49 96,48.45 95.55,48 95,48 Z"
         inkscape:connector-curvature="0" />
    </defs>
    <clipPath
       id="clipPath8">
      <use
         id="use6"
         xlink:href="#SVGID_63_"
         overflow="visible"
         style="overflow:visible"
         x="0"
         y="0"
         width="100%"
         height="100%" />
    </clipPath>
    <radialGradient
       id="radialGradient74"
       r="77.190002"
       cx="22.860001"
       cy="23"
       gradientUnits="userSpaceOnUse">
      <stop
         id="stop70"
         offset="0"
         stop-color="#fff" />
      <stop
         id="stop72"
         offset="1"
         stop-opacity="0"
         stop-color="#fff" />
    </radialGradient>
  </defs>
  <sodipodi:namedview
     id="base"
     pagecolor="#6b696b"
     bordercolor="#66f266"
     borderopacity="1"
     inkscape:pageopacity="0.18823529"
     inkscape:pageshadow="2"
     inkscape:zoom="0.35355339"
     inkscape:cx="2928.7493"
     inkscape:cy="-352.65769"
     inkscape:document-units="mm"
     inkscape:current-layer="layer1"
     showgrid="false"
     inkscape:pagecheckerboard="false"
     inkscape:window-width="1920"
     inkscape:window-height="1046"
     inkscape:window-x="0"
     inkscape:window-y="0"
     inkscape:window-maximized="1"
     showguides="true"
     inkscape:guide-bbox="true"
     inkscape:snap-global="false"
     inkscape:snap-object-midpoints="true"
     showborder="true" />
  <metadata
     id="metadata5">
    <rdf:RDF>
      <cc:Work
         rdf:about="">
        <dc:format>image/svg+xml</dc:format>
        <dc:type
           rdf:resource="http://purl.org/dc/dcmitype/StillImage" />
        <dc:title />
      </cc:Work>
    </rdf:RDF>
  </metadata>
  <g
     inkscape:label="Layer 1"
     inkscape:groupmode="layer"
     id="layer1"
     transform="translate(0,-97)">
    <g
       id="g1170"
       transform="matrix(1.4157132,0,0,1.4157132,-49.870964,-67.823439)">
      <path
         sodipodi:nodetypes="scssssssscccccccccc"
         inkscape:connector-curvature="0"
         id="rect847"
         d="m 44.878392,139.68732 c -4.22939,0 -7.63415,3.6081 -7.63416,8.08943 v 84.38192 c 0,4.48133 3.40477,8.08943 7.63416,8.08943 H 167.32312 c 4.22939,0 7.63416,-3.6081 7.63416,-8.08943 v -84.38192 c 0,-4.48133 -3.40477,-8.08943 -7.63416,-8.08943 z m 114.397158,9.24078 c 3.70681,-7e-5 6.7118,3.00492 6.71173,6.71173 7e-5,3.70682 -3.00491,6.71181 -6.71173,6.71174 -3.70682,7e-5 -6.71181,-3.00492 -6.71174,-6.71174 -7e-5,-3.70682 3.00492,-6.7118 6.71174,-6.71173 z m -54.3972,3.91345 c 20.76452,9e-5 37.59739,16.83319 37.59719,37.59771 -9e-5,20.76431 -16.83288,37.59709 -37.59719,37.59718 -20.764314,-9e-5 -37.597096,-16.83287 -37.597188,-37.59718 -2e-4,-20.76452 16.832667,-37.59762 37.597188,-37.59771 z"
         style="opacity:1;fill:#ffffff;fill-opacity:1;stroke:none;stroke-width:7.28062677;stroke-linecap:round;stroke-linejoin:round;stroke-miterlimit:0;stroke-dasharray:none;stroke-dashoffset:0;stroke-opacity:1" />
      <rect
         ry="3.175"
         rx="2.664248"
         y="131.79782"
         x="53.874222"
         height="14.967093"
         width="26.912968"
         id="rect866"
         style="opacity:1;fill:#ffffff;fill-opacity:1;stroke:none;stroke-width:7.10024261;stroke-linecap:round;stroke-linejoin:round;stroke-miterlimit:4;stroke-dasharray:none;stroke-dashoffset:0;stroke-opacity:1" />
      <path
         inkscape:connector-curvature="0"
         id="path984"
         d="m 104.80222,157.32719 a 33.21461,33.21461 0 0 0 -3.38559,0.17647 33.21461,33.21461 0 0 0 -29.82892,33.03805 33.21461,33.21461 0 0 0 33.21451,33.21451 33.21461,33.21461 0 0 0 33.21451,-33.21451 33.21461,33.21461 0 0 0 -33.21451,-33.21452 z m -0.002,20.80069 a 12.407845,12.407845 0 0 1 12.40802,12.40854 12.407845,12.407845 0 0 1 -12.40802,12.4075 12.407845,12.407845 0 0 1 -12.407492,-12.4075 12.407845,12.407845 0 0 1 2.771135,-7.80091 12.407845,12.407845 0 0 1 9.636357,-4.60763 z"
         style="opacity:1;fill:#ffffff;fill-opacity:1;stroke:none;stroke-width:8.02548599;stroke-linecap:round;stroke-linejoin:round;stroke-miterlimit:4;stroke-dasharray:none;stroke-dashoffset:0;stroke-opacity:1" />
    </g>
    <path
       style="fill:#ffffff;fill-opacity:1;stroke-width:1.66449058"
       inkscape:connector-curvature="0"
       d="m 446.25338,369.90724 c 0.29961,0.31625 0.71573,0.49935 1.18179,0.49935 0.91547,0 1.66449,-0.74902 1.66449,-1.66449 v -78.23106 h -41.61227 v 41.61226 z"
       id="path26" />
    <path
       style="fill:#ffffff;fill-opacity:1;stroke-width:1.66449058"
       inkscape:connector-curvature="0"
       d="m 368.76802,288.97438 c -0.31626,0.29961 -0.49935,0.71573 -0.49935,1.18179 0,0.91547 0.74902,1.66449 1.66449,1.66449 h 78.23106 v -41.61227 h -41.61227 z"
       id="path40" />
    <path
       style="fill:#ffffff;fill-opacity:1;stroke-width:1.66449058"
       inkscape:connector-curvature="0"
       d="m 450.03732,213.24104 c -0.29961,-0.31625 -0.71573,-0.49935 -1.18179,-0.49935 -0.91547,0 -1.66449,0.74902 -1.66449,1.66449 v 78.23106 h 41.61227 v -41.61226 z"
       id="path26-2" />
    <g
       id="g22"
       transform="matrix(1.6644906,0,0,1.6644906,368.08158,211.92511)"
       style="fill:#ffffff;fill-opacity:1">
      <path
         id="path10"
         d="M 95.7,49.71 C 95.89,49.53 96,49.28 96,49 96,48.45 95.55,48 95,48 H 48 v 25 h 25 z"
         inkscape:connector-curvature="0"
         style="fill:#ffffff;fill-opacity:1" />
      <path
         id="path16"
         d="M 73,73 95.7,49.71 C 95.89,49.53 96,49.28 96,49 c 0,-0.09 -0.03,-0.17 -0.05,-0.25 -0.05,0.17 -0.12,0.34 -0.24,0.46 L 73,72.5 H 48 V 73 Z"
         inkscape:connector-curvature="0"
         style="fill:#ffffff;fill-opacity:1" />
      <polygon
         id="polygon18"
         points="48,48 48,48.5 72.5,73 73,73 "
         style="fill:#ffffff;fill-opacity:1" />
      <path
         id="path20"
         d="M 95.95,49.25 C 95.97,49.17 96,49.09 96,49 96,48.45 95.55,48 95,48 H 48 v 0.5 h 47 c 0.46,0 0.84,0.32 0.95,0.75 z"
         inkscape:connector-curvature="0"
         style="fill:#ffffff;fill-opacity:1" />
    </g>
    <polygon
       transform="matrix(5.6153193,0,0,5.6153193,414.83502,116.1447)"
       style="fill:#f1f1f1"
       points="45,51 38,48 45,45 48,38 51,45 58,48 51,51 48,58 "
       id="polygon66" />
  </g>
</svg>
