<?xml version="1.0" encoding="UTF-8" standalone="no"?>
<!-- Created with Inkscape (http://www.inkscape.org/) -->

<svg
   xmlns:dc="http://purl.org/dc/elements/1.1/"
   xmlns:cc="http://creativecommons.org/ns#"
   xmlns:rdf="http://www.w3.org/1999/02/22-rdf-syntax-ns#"
   xmlns:svg="http://www.w3.org/2000/svg"
   xmlns="http://www.w3.org/2000/svg"
   xmlns:sodipodi="http://sodipodi.sourceforge.net/DTD/sodipodi-0.dtd"
   xmlns:inkscape="http://www.inkscape.org/namespaces/inkscape"
   width="200mm"
   height="200mm"
   viewBox="0 0 200 200"
   version="1.1"
   id="svg8"
   inkscape:version="0.92.2 2405546, 2018-03-11"
   sodipodi:docname="xposed.svg">
  <defs
     id="defs2" />
  <sodipodi:namedview
     id="base"
     pagecolor="#262f79"
     bordercolor="#666666"
     borderopacity="1.0"
     inkscape:pageopacity="0"
     inkscape:pageshadow="2"
     inkscape:zoom="0.7"
     inkscape:cx="225.19618"
     inkscape:cy="479.5554"
     inkscape:document-units="mm"
     inkscape:current-layer="layer1"
     showgrid="false"
     inkscape:pagecheckerboard="false"
     inkscape:window-width="1920"
     inkscape:window-height="1046"
     inkscape:window-x="0"
     inkscape:window-y="0"
     inkscape:window-maximized="1" />
  <metadata
     id="metadata5">
    <rdf:RDF>
      <cc:Work
         rdf:about="">
        <dc:format>image/svg+xml</dc:format>
        <dc:type
           rdf:resource="http://purl.org/dc/dcmitype/StillImage" />
        <dc:title></dc:title>
      </cc:Work>
    </rdf:RDF>
  </metadata>
  <g
     inkscape:label="Layer 1"
     inkscape:groupmode="layer"
     id="layer1"
     transform="translate(0,-97)">
    <path
       style="fill:#ffffff;fill-opacity:1;stroke-width:0.47645259"
       d="m 91.467366,281.42309 c -0.88877,-0.46396 -2.390212,-1.66443 -3.336538,-2.66774 -3.110495,-3.29773 -3.169904,-3.90627 -3.034034,-31.07176 l 0.120149,-24.01947 27.920447,-0.24529 27.92043,-0.24529 0.88438,-1.15815 c 0.8163,-1.06901 0.88438,-2.07322 0.88438,-13.04439 v -11.88623 l 1.17861,-0.56932 c 2.81073,-1.35776 6.10025,-0.27336 9.55069,3.14837 1.23566,1.22543 2.96441,2.54597 3.84157,2.93455 2.42186,1.07285 5.77141,0.89397 8.1457,-0.43497 6.69861,-3.74933 6.70726,-14.39123 0.014,-17.94321 -4.17465,-2.2156 -7.63714,-1.63705 -11.28474,1.88563 -3.16923,3.06069 -5.18103,4.124 -7.82132,4.13389 -3.70287,0.013 -3.62534,0.29251 -3.62534,-13.02811 0,-6.72379 -0.19367,-12.12989 -0.45296,-12.64353 -0.76294,-1.51142 -2.83786,-1.88929 -10.74454,-1.95676 -10.1444,-0.0866 -10.6522,0.16984 -7.24045,3.65444 4.4969,4.59304 5.57792,11.54879 2.74353,17.65287 -4.34324,9.35347 -15.49235,11.40733 -22.85657,4.21061 -2.97315,-2.90554 -4.22672,-6.18423 -4.2327,-11.0706 -0.006,-4.77976 0.99322,-7.41404 4.18316,-11.02964 1.20176,-1.36211 2.03253,-2.63873 1.84619,-2.83694 -0.18635,-0.19821 -4.95505,-0.47076 -10.597062,-0.60567 l -10.258234,-0.24529 -0.120149,-23.96876 c -0.0773,-15.41299 0.05107,-24.64302 0.359642,-25.8577 1.987026,-4.99916 4.424197,-6.61393 8.486885,-8.79836 H 139.6845 c 31.32553,0 42.064,-0.17967 46.60844,0.40553 4.1492,0.54916 7.82074,4.95384 7.89562,8.39237 v 80.48789 c 0,88.87389 0.22341,82.30141 -2.9155,85.77315 -0.81422,0.90055 -2.25298,2.05957 -3.19722,2.57556 -1.65758,0.90582 -3.32493,0.93779 -48.35508,0.92701 -43.153778,-0.0106 -46.759017,-0.0742 -48.254229,-0.85469 z m 94.908314,-4.62088 c 1.146,-0.68286 2.13382,-1.80659 2.72367,-3.0984 0.91374,-2.00112 0.9255,-3.02841 0.9255,-80.7411 0,-75.66895 -0.0333,-78.78032 -0.85679,-80.42359 -0.97225,-1.78484 -3.01967,-3.90225 -3.90737,-3.91701 l -45.39458,0.002 c -44.480528,0.002 -45.424983,0.0215 -46.90271,0.97668 -0.829448,0.53618 -1.923079,1.69435 -2.430276,2.57373 -0.889906,1.54295 -0.918098,2.37112 -0.805539,23.67518 l 0.11665,22.0763 10.411365,0.24529 10.4114,0.24529 0.4249,1.82338 c 0.63702,2.73361 -0.33591,5.48028 -2.99841,8.46496 -2.69533,3.02148 -3.67691,5.2886 -3.66318,8.46074 0.0122,2.98625 1.24269,5.85765 3.34799,7.8174 4.95324,4.6108 12.232,3.057 15.30307,-3.26676 1.08933,-2.24312 1.27047,-3.11794 1.07994,-5.21554 -0.28029,-3.08591 -1.03167,-4.67635 -3.56058,-7.53675 -2.27746,-2.576 -3.22417,-4.66958 -3.22417,-7.12996 0,-3.79229 -0.44257,-3.66289 12.52837,-3.66289 13.11907,0 14.15029,0.24059 16.22983,3.78677 1.03711,1.76856 1.09459,2.33467 1.23435,12.15722 0.0807,5.66624 0.32369,10.49375 0.54016,10.72779 0.21997,0.23781 1.38001,-0.5505 2.62981,-1.78706 3.7053,-3.66619 5.7114,-4.52547 10.56528,-4.52547 3.74245,0 4.41332,0.14611 6.61869,1.44136 5.07645,2.98158 7.76262,8.1111 7.37441,14.082 -0.25844,3.97364 -1.64894,7.21823 -4.23847,9.88969 -2.84331,2.93334 -5.35838,3.96344 -9.75463,3.99523 -4.36813,0.0315 -6.74105,-0.98306 -10.35475,-4.42766 -1.25115,-1.19264 -2.50457,-2.16846 -2.7853,-2.16846 -0.35873,0 -0.47913,2.95219 -0.4051,9.93433 -0.0524,4.85869 0.83404,7.63262 -0.84242,11.6478 -0.76985,1.88208 -2.22496,3.70614 -3.65881,4.58644 -0.65793,0.40394 -8.48279,0.63909 -27.06958,0.81347 l -26.144147,0.2453 v 22.32159 c 0,22.26789 0.0018,22.32526 1.026409,23.84714 2.217223,3.29547 -0.662255,3.11149 48.885228,3.12383 l 44.82163,0.0106 1.79819,-1.07146 z m -1.6722,-151.25494 -44.60306,-0.12515 c -32.57242,-0.0914 -44.772604,0.0241 -45.231672,0.42801 -0.500672,0.44053 -0.62717,3.16208 -0.621538,13.37088 0.0035,7.04977 0.170867,13.09106 0.370904,13.42508 0.279701,0.4669 5.821596,0.63702 23.972026,0.73586 l 23.60821,0.12849 2.70163,1.47176 c 1.92248,1.0473 3.14366,2.15347 4.23428,3.83557 2.02005,3.11552 2.47848,5.06062 2.48157,10.52941 0.006,5.36406 0.14411,5.51324 4.09908,4.33673 8.81858,-2.62333 17.60467,1.38664 22.04765,10.06253 2.75575,5.26831 2.5936,13.17077 0.60345,17.71992 -1.69545,3.83559 -5.41212,7.88856 -8.89114,9.69565 -5.00811,2.6013 -9.47792,2.94578 -14.77458,1.13864 -1.24059,-0.42328 -2.40799,-0.57586 -2.61724,-0.34209 -0.20777,0.23209 -0.45865,2.96077 -0.55759,6.0637 -0.14497,4.55166 -0.36916,6.02089 -1.15969,7.60408 -1.33437,2.67224 -3.62607,4.89009 -6.30505,6.10189 -2.15944,0.9768 -3.03505,1.01157 -25.47317,1.01157 -17.45615,0 -23.375004,0.14648 -23.79215,0.5887 -0.404204,0.42854 -0.555274,4.1591 -0.555274,13.71199 0,11.98082 0.07048,13.16681 0.809773,13.62332 0.534182,0.32986 15.798571,0.50511 44.851591,0.51496 35.89868,0.013 44.15486,-0.105 44.65328,-0.63329 0.92381,-48.59998 0.35768,-74.32344 0.14865,-134.99821 z M 30.615028,228.31455 C 16.108517,228.174 4.1874821,228.00847 4.1238572,227.94661 c -0.063663,-0.0619 -0.115777,-15.66328 -0.115777,-34.66976 0,-27.10706 0.124696,-34.64281 0.5784121,-34.95413 0.3181235,-0.21829 5.8858657,-0.46627 12.3727727,-0.55106 11.637854,-0.15204 11.805188,-0.13999 12.609348,0.91289 0.976528,1.27856 1.064305,4.28513 0.189561,6.49316 -0.343971,0.86825 -1.585669,2.65377 -2.759316,3.96781 -3.925916,4.39556 -4.634881,9.5365 -1.885761,13.6743 4.607686,6.93521 14.900483,5.16722 17.123869,-2.94136 1.056647,-3.85359 -0.02063,-7.62004 -3.051591,-10.6692 -2.327148,-2.3411 -3.353661,-4.46895 -3.385858,-7.01848 -0.01573,-1.26644 0.223806,-2.79933 0.532871,-3.40642 0.559208,-1.09846 0.617113,-1.10382 11.897371,-1.10382 13.893576,0 15.329627,0.4257 17.37634,5.15113 0.73457,1.69598 0.851326,3.31075 0.860105,11.89668 0.0052,5.46387 0.135715,9.93433 0.289216,9.93433 0.153551,0 1.302767,-0.97582 2.553961,-2.16846 4.537867,-4.32556 9.733374,-5.68295 15.04632,-3.93102 3.909896,1.28928 8.103387,5.74251 9.210839,9.78138 2.881722,10.50945 -3.95036,20.18158 -14.156395,20.04107 -3.79466,-0.0523 -6.575765,-1.29935 -9.611826,-4.3102 -1.243603,-1.23328 -2.484985,-2.24233 -2.7586,-2.24233 -0.334668,0 -0.546161,3.42466 -0.646111,10.46237 -0.147606,10.3871 -0.1574,10.47656 -1.379806,12.43324 -1.366796,2.18788 -3.380087,3.38095 -6.17244,3.65776 -1.018014,0.10087 -13.719894,0.0687 -28.226422,-0.072 z m 29.066608,-4.97586 c 2.079469,-1.17419 2.137392,-1.55111 2.152817,-14.00689 0.01749,-13.40648 -0.130468,-12.8951 3.709105,-12.8951 2.393134,0 4.014113,0.88531 7.17139,3.91667 3.672323,3.52588 7.028449,4.27211 10.882433,2.41971 4.04666,-1.94502 6.015476,-5.04569 6.015476,-9.47371 0,-3.33853 -0.570017,-4.98573 -2.457702,-7.1022 -1.953112,-2.18981 -4.672973,-3.47283 -7.390142,-3.48605 -2.864057,-0.0149 -4.704173,0.84281 -7.273101,3.38643 -9.745272,8.59531 -10.784027,0.62404 -10.642733,-9.04908 V 164.9947 l -1.135802,-1.20416 c -1.130117,-1.19817 -1.181867,-1.20416 -10.384054,-1.20416 -5.590268,0 -9.360024,0.19167 -9.530787,0.4846 -0.155302,0.26653 0.656272,1.54864 1.803634,2.84911 4.189963,4.74905 5.222283,10.0859 3.52904,16.05521 -8.128332,17.54256 -27.74887,8.21086 -26.770416,-5.60465 0.532591,-4.00549 1.49025,-7.46017 4.039209,-10.24481 3.182601,-3.47688 3.069605,-3.53951 -6.385839,-3.53951 -7.1230511,0 -8.3188218,0.10843 -8.5604666,0.77599 -0.1544265,0.42681 -0.2808718,13.95957 -0.2808718,30.07282 0,22.13231 0.1357138,29.44079 0.5552738,29.88551 0.7838533,0.83105 49.4833116,0.84823 50.9536406,0.0185 z"
       id="path892"
       inkscape:connector-curvature="0"
       sodipodi:nodetypes="ccsccccsccccccscscccssccssccccsccscccccccsccsccsccccccsccsssccccscccccscccscscsccccsccccccccscccccccsscsccccccscccscccccssccscccccscccccccsccsscccccscscccscscccc" />
  </g>
</svg>
