<?xml version="1.0" encoding="UTF-8" standalone="no"?>
<svg
   xmlns:dc="http://purl.org/dc/elements/1.1/"
   xmlns:cc="http://creativecommons.org/ns#"
   xmlns:rdf="http://www.w3.org/1999/02/22-rdf-syntax-ns#"
   xmlns:svg="http://www.w3.org/2000/svg"
   xmlns="http://www.w3.org/2000/svg"
   xmlns:sodipodi="http://sodipodi.sourceforge.net/DTD/sodipodi-0.dtd"
   xmlns:inkscape="http://www.inkscape.org/namespaces/inkscape"
   version="1.1"
   id="Layer_1"
   x="0px"
   y="0px"
   width="200"
   height="200"
   viewBox="0 0 200 200"
   enable-background="new 0 0 256 256"
   xml:space="preserve"
   sodipodi:docname="VLC.svg"
   inkscape:version="0.92.2 2405546, 2018-03-11"><metadata
   id="metadata8"><rdf:RDF><cc:Work
       rdf:about=""><dc:format>image/svg+xml</dc:format><dc:type
         rdf:resource="http://purl.org/dc/dcmitype/StillImage" /><dc:title></dc:title></cc:Work></rdf:RDF></metadata><defs
   id="defs6" /><sodipodi:namedview
   pagecolor="#502fa3"
   bordercolor="#666666"
   borderopacity="1"
   objecttolerance="10"
   gridtolerance="10"
   guidetolerance="10"
   inkscape:pageopacity="0"
   inkscape:pageshadow="2"
   inkscape:window-width="1902"
   inkscape:window-height="1027"
   id="namedview4"
   showgrid="false"
   inkscape:zoom="3.6875"
   inkscape:cx="138.72191"
   inkscape:cy="108.82621"
   inkscape:window-x="8"
   inkscape:window-y="8"
   inkscape:window-maximized="0"
   inkscape:current-layer="Layer_1"
   inkscape:pagecheckerboard="true" />  
<path
   style="fill:#ffffff;fill-opacity:1;stroke-width:0.42210865"
   d="m 15.03822,197.56968 c -1.216264,-0.64235 -2.298758,-1.68393 -3.107995,-2.99052 -1.177713,-1.90152 -1.237919,-2.22415 -1.168029,-6.25935 l 0.07369,-4.25449 10.173346,-32.33082 c 5.595337,-17.78195 10.536432,-32.92174 10.98021,-33.64398 0.443781,-0.72225 1.597953,-1.86193 2.56483,-2.53265 1.755545,-1.2178 1.769028,-1.21977 9.815867,-1.43054 l 8.05791,-0.21105 3.068692,-10.1306 c 1.687781,-5.571848 3.242544,-10.795435 3.455036,-11.607999 0.212492,-0.812556 2.023579,-6.795949 4.024644,-13.296423 C 64.97748,72.380784 70.898894,53.10097 76.135119,36.037228 83.732509,11.278897 85.921092,3.7253877 86.780915,2.808063 89.50875,1.3872958 91.266196,0.94959706 99.04708,0.94959706 c 7.78156,0 9.92434,0.29437274 12.40752,1.85846594 0.84154,0.899877 2.59004,7.245866 8.22426,25.420156 7.78721,25.119133 14.88091,48.244621 20.3285,66.271064 1.8943,6.268307 4.00887,13.248937 4.69908,15.512487 l 1.25493,4.11556 7.68535,0.006 c 7.1729,0.006 7.79526,0.0698 9.33367,0.94976 3.38362,1.93537 3.24456,1.57329 14.38562,37.45519 l 10.41939,33.55763 -0.20204,3.20039 c -0.25113,3.97796 -1.35295,6.29219 -3.75147,7.8795 l -1.75477,1.16126 -82.58631,0.10867 -82.586312,0.10867 -1.866276,-0.98566 z m 100.31335,-30.83992 c 12.59868,-2.67216 24.06321,-8.39706 28.25534,-14.10953 2.10728,-2.8715 2.14897,-3.74257 0.47851,-10.00056 -2.06215,-7.72539 -3.69301,-13.48112 -3.87025,-13.65906 -0.0831,-0.0834 -0.68427,0.22551 -1.33608,0.68637 -4.65047,3.2882 -14.44195,7.00713 -22.99819,8.735 -19.3104,3.89959 -42.972307,0.52865 -56.577978,-8.06022 -0.879183,-0.55501 -1.598518,-0.93801 -1.598518,-0.8511 0,0.0868 -1.027528,3.65082 -2.283404,7.91983 -3.444369,11.70824 -3.320206,11.09877 -2.608232,12.80277 2.755679,6.59526 16.407045,13.96417 30.851314,16.6533 6.662211,1.24034 6.663811,1.24044 17.095398,1.09561 8.25911,-0.11466 10.16172,-0.27275 14.59209,-1.21241 z m -5.75901,-70.55505 c 6.72639,-1.287676 14.22514,-4.206274 17.70004,-6.889065 l 0.99555,-0.768609 -3.04477,-10.094247 c -1.67462,-5.551836 -3.17763,-10.237503 -3.34001,-10.412595 -0.16239,-0.17509 -1.32967,0.182361 -2.59398,0.794337 -11.43199,5.533574 -27.488562,5.704009 -39.706995,0.421468 l -3.294772,-1.424469 -0.414571,1.318777 c -0.228008,0.725326 -1.678682,5.489852 -3.223704,10.58783 l -2.809143,9.269051 0.991137,0.802577 c 3.747313,3.034398 13.884658,6.275597 22.521238,7.200684 3.20585,0.34338 12.6743,-0.12696 16.21998,-0.805739 z m -6.21568,-66.521614 c 1.23028,-0.261035 3.12553,-0.922176 4.2117,-1.469208 l 1.97486,-0.994597 -0.95218,-3.06846 c -4.35484,-14.033455 -4.06443,-13.306925 -5.42804,-13.579645 -1.91502,-0.382998 -7.30404,-0.302028 -8.43166,0.126695 -0.855171,0.325137 -1.341131,1.48522 -3.404347,8.126963 -1.323725,4.261231 -2.406776,7.99519 -2.406776,8.297686 0,0.659069 3.114893,2.099523 5.601253,2.59025 2.63761,0.520577 6.29979,0.508274 8.83519,-0.02968 z"
   id="path845"
   inkscape:connector-curvature="0"
   sodipodi:nodetypes="ccscsccccscsscscscscccscsccccccccsccscssccsccccsccsccccscccccccsssscc" /></svg>