<?xml version="1.0" encoding="UTF-8" standalone="no"?>
<!-- Created with Inkscape (http://www.inkscape.org/) -->

<svg
   xmlns:dc="http://purl.org/dc/elements/1.1/"
   xmlns:cc="http://creativecommons.org/ns#"
   xmlns:rdf="http://www.w3.org/1999/02/22-rdf-syntax-ns#"
   xmlns:svg="http://www.w3.org/2000/svg"
   xmlns="http://www.w3.org/2000/svg"
   xmlns:sodipodi="http://sodipodi.sourceforge.net/DTD/sodipodi-0.dtd"
   xmlns:inkscape="http://www.inkscape.org/namespaces/inkscape"
   width="200mm"
   height="200mm"
   viewBox="0 0 200 200"
   version="1.1"
   id="svg8"
   sodipodi:docname="telegram.svg"
   inkscape:version="0.92.2 2405546, 2018-03-11">
  <defs
     id="defs2" />
  <sodipodi:namedview
     id="base"
     pagecolor="#4d33c4"
     bordercolor="#666666"
     borderopacity="1.0"
     inkscape:pageopacity="0"
     inkscape:pageshadow="2"
     inkscape:zoom="1"
     inkscape:cx="461.81243"
     inkscape:cy="372.98508"
     inkscape:document-units="mm"
     inkscape:current-layer="layer1"
     showgrid="false"
     inkscape:pagecheckerboard="true"
     showguides="true"
     inkscape:guide-bbox="true"
     inkscape:object-nodes="false"
     inkscape:window-width="1920"
     inkscape:window-height="1046"
     inkscape:window-x="0"
     inkscape:window-y="0"
     inkscape:window-maximized="1" />
  <metadata
     id="metadata5">
    <rdf:RDF>
      <cc:Work
         rdf:about="">
        <dc:format>image/svg+xml</dc:format>
        <dc:type
           rdf:resource="http://purl.org/dc/dcmitype/StillImage" />
        <dc:title></dc:title>
      </cc:Work>
    </rdf:RDF>
  </metadata>
  <g
     inkscape:label="Layer 1"
     inkscape:groupmode="layer"
     id="layer1"
     transform="translate(0,-97)">
    <path
       style="fill:#f1f1f1;fill-opacity:1;stroke:none;stroke-width:0.83750838px;stroke-linecap:butt;stroke-linejoin:miter;stroke-opacity:1"
       d="m 198.0003,105.29712 -0.006,0.004 c 3.07991,3.62648 0.49326,8.89175 0.003,10.31698 -0.025,0.0731 -0.097,0.20896 -0.097,0.20896 l -80.08541,171.7345 c 0,0 -3.07979,5.2803 -8.01544,3.7335 -5.13282,-1.60855 -6.07985,-8.93848 -6.07985,-8.93848 l -23.854651,-65.5512 c 0,0 -1.455079,-5.80674 -2.813975,-7.38546 -1.422414,-1.65256 -6.224047,-3.70368 -6.224047,-3.70368 L 8.9095913,172.19556 c 0,0 -7.1074118,-2.02742 -7.934119,-7.34251 -0.79496228,-5.11087 4.8848909,-7.37049 4.8848909,-7.37049 L 187.82161,103.78395 c 3.03041,-0.95365 7.54854,-1.54352 10.17857,1.51204 z"
       id="path885"
       inkscape:connector-curvature="0"
       sodipodi:nodetypes="ccccccccscccccc" />
  </g>
</svg>
